<svg xmlns="http://www.w3.org/2000/svg" viewBox="0 0 530.19 530.14"><path d="M253.94 222.83a14.58 14.58 0 0 1-21.05 3.57l-127.41-97.25a14.59 14.59 0 0 1-1.9-21.52 226.44 226.44 0 0 1 88.6-58.57c39.38 33.39 54.55 101.16 61.76 173.77zM97.18 140.09l127.34 97.19a14.58 14.58 0 0 1-6.91 26L58.79 284.64a14.62 14.62 0 0 1-16.57-13.93 225.7 225.7 0 0 1 33.71-126.79 14.59 14.59 0 0 1 21.25-3.83zM114.28 429.51a225.93 225.93 0 0 1-66-113.4 14.6 14.6 0 0 1 12.31-17.8L219.45 277A14.57 14.57 0 0 1 233 300.27L135.79 427.6a14.59 14.59 0 0 1-21.51 1.91zM289.17 484.11a14.52 14.52 0 0 1-11.8 6.82 226 226 0 0 1-126.85-33.71 14.58 14.58 0 0 1-3.85-21.22l97.25-127.42a14.38 14.38 0 0 1 15.57-5.18c4.13 83.6 5.61 159.12 29.68 180.71z" fill="#fbd83b"/><path d="M168.24 248.21c-13.16-3.46-23.05-9.25-22.08-12.93s12.42-3.87 25.59-.41 23.05 9.24 22.08 12.93-12.42 3.87-25.59.41zM177.08 314c-11.78 6.81-19.79 15-17.89 18.3s13 .45 24.79-6.36 19.8-15 17.89-18.29-13-.42-24.79 6.35z" fill="#fffbd7"/><ellipse cx="243.22" cy="368.34" rx="24.64" ry="6.9" transform="rotate(-74.73 243.225 368.341)" fill="#fffbd7"/><path d="M223.65 174.87c6.93 11.72 9.88 22.79 6.6 24.73s-11.55-6-18.47-17.71-9.87-22.79-6.59-24.73 11.54 6 18.46 17.71z" fill="#fffbd7"/><path d="M526.74 222.68C503.31 78.17 367.15-20 222.69 3.45a264.34 264.34 0 0 0-30.91 6.92 187.58 187.58 0 0 1 19 14.33c142.16 121.72 23.41 391.92 128.51 475.39a249.81 249.81 0 0 1-34.77 8.23c-134.15 21.75-261-69.7-282.7-203.79C3 188.33 69.08 77.58 174.34 36l-.19-.13a37.68 37.68 0 0 0-39.65-1.44C40.75 87.46-14.79 194.92 3.46 307.5 26.87 452 163 550.1 307.5 526.68a269.19 269.19 0 0 0 51.95-13.87c4.63-1.81 9.2-3.66 13.68-5.71q2.34-1 4.63-2.11A66.7 66.7 0 0 0 414 461.63l.09-.34c30.84-115.67 2.84-362.55-119.61-419.19C424 91.51 461.08 311 444.56 433.8a280.86 280.86 0 0 1-6 31.68 264.83 264.83 0 0 0 88.18-242.8z" fill="#009245"/></svg>